<svg xmlns="http://www.w3.org/2000/svg">
  <symbol id="icon-github"  viewBox="0 0 18 18">
    <path d="M8.99971876,0.988687854 C4.03018656,0.988687854 0,5.12293366 0,10.217337 C0,14.2953345 2.57954439,17.750664 6.15524515,18.9718134 C6.21149339,18.9836255 6.25986688,18.9881254 6.30767789,18.9881254 C6.64122996,18.9881254 6.76947595,18.742883 6.76947595,18.5302647 C6.76947595,18.3092091 6.7616012,17.7309772 6.75766382,16.9592513 C6.42017437,17.0357489 6.11868379,17.0678104 5.84981719,17.0678104 C4.11793381,17.0678104 3.7247586,15.7217899 3.7247586,15.7217899 C3.31470892,14.6570107 2.72410237,14.3718321 2.72410237,14.3718321 C1.94056436,13.8211618 2.72016499,13.8054123 2.78035061,13.8054123 C2.78428799,13.8054123 2.78428799,13.8054123 2.78428799,13.8054123 C3.68819724,13.8858473 4.16236993,14.7616324 4.16236993,14.7616324 C4.61235586,15.5491078 5.21477454,15.7701634 5.7536327,15.7701634 C6.17549452,15.7701634 6.55742008,15.6334802 6.78241305,15.5288585 C6.86284804,14.9343146 7.09571576,14.5282022 7.35277023,14.2953345 C5.35595763,14.0624668 3.2545233,13.271054 3.2545233,9.73528952 C3.2545233,8.72675854 3.60382488,7.90328427 4.17868192,7.26036686 C4.0864348,7.02749914 3.77706947,6.08702853 4.26699166,4.8175057 C4.26699166,4.8175057 4.33111465,4.79725634 4.46779788,4.79725634 C4.7934752,4.79725634 5.52863973,4.92156495 6.74191432,5.76528858 C7.46132933,5.56054498 8.22855536,5.45986063 8.99578138,5.45592325 C9.75907003,5.45986063 10.5307959,5.56054498 11.2496484,5.76528858 C12.462923,4.92156495 13.1980876,4.79725634 13.5237649,4.79725634 C13.6604481,4.79725634 13.7245711,4.8175057 13.7245711,4.8175057 C14.2144933,6.08702853 13.905128,7.02693666 13.8128808,7.26036686 C14.3871754,7.90722165 14.7370395,8.73069592 14.7370395,9.73528952 C14.7370395,13.2789288 12.6316678,14.0585294 10.6269804,14.2874598 C10.9481579,14.5726384 11.2378363,15.1351208 11.2378363,15.9951564 C11.2378363,17.2286804 11.2260242,18.2248367 11.2260242,18.5263273 C11.2260242,18.7434455 11.3503328,18.9881254 11.6838849,18.9881254 C11.7322584,18.9881254 11.7885066,18.984188 11.8447549,18.9718134 C15.424393,17.750664 18,14.2913971 18,10.217337 C18,5.12293366 13.9703759,0.988687854 9.00028124,0.988687854 L8.99971876,0.988687854 Z"></path>
  </symbol>
  <symbol id="icon-sina" viewBox="0 0 24 19">
    <path d="M17.409222,9.49357295 C16.5384669,9.32462401 16.9616546,8.85596431 16.9616546,8.85596431 C16.9616546,8.85596431 17.8137105,7.45166833 16.7930475,6.43068972 C15.5282449,5.16622896 12.4547366,6.59161727 12.4547366,6.59161727 C11.2809044,6.95586739 11.5920029,6.42535089 11.7579274,5.5225366 C11.7579274,4.45874217 11.3936773,2.6583998 8.26657032,3.72177343 C5.1425667,4.790933 2.46037086,8.53687066 2.46037086,8.53687066 C0.595147271,11.0260008 0.841995762,12.9497937 0.841995762,12.9497937 C1.30799923,17.1967923 5.82059791,18.362603 9.33036478,18.6385652 C13.023072,18.9282295 18.006671,17.3657412 19.5180329,14.1556852 C21.0290265,10.9403429 18.2829751,9.66780812 17.409222,9.49357295 Z M9.60367071,17.4409582 C5.93802586,17.6122215 2.97455528,15.7740603 2.97455528,13.3277459 C2.97455528,10.8787491 5.93805215,8.91482291 9.60367071,8.74587398 C13.2719718,8.57700394 16.2411494,10.0883132 16.2411494,12.5322868 C16.2411494,14.9782592 13.2719718,17.2744025 9.60367071,17.4409582 Z M8.8723827,10.3589103 C5.18538251,10.7904349 5.61151572,14.2439731 5.61151572,14.2439731 C5.61151572,14.243973 5.57377574,15.3375124 6.60001427,15.8944863 C8.75729546,17.0629797 10.9784848,16.3554928 12.1011378,14.9063034 C13.2237909,13.4565353 12.564748,9.9303838 8.8723827,10.3589103 Z M7.94245349,15.2060668 C7.25400762,15.2867015 6.69934805,14.8899713 6.69934805,14.3139564 C6.69934805,13.7405978 7.19212454,13.1401242 7.88085969,13.0681947 C8.67166378,12.9929777 9.18616378,13.4485665 9.18616381,14.0245814 C9.18616381,14.5979137 8.62821679,15.1281672 7.94245349,15.2060668 Z M10.1157511,13.3545453 C9.88260479,13.528833 9.59562301,13.5047163 9.47251437,13.2956867 C9.34406691,13.0919433 9.39222154,12.7650913 9.62802417,12.5935387 C9.90138272,12.3901372 10.18534,12.4486539 10.3084487,12.6527392 C10.4319255,12.8614795 10.3436113,13.1749187 10.1157511,13.3545453 L10.1157511,13.3545453 Z M19.2045674,7.99825391 L19.2045674,7.99825391 C18.8690628,7.99825388 18.5964143,7.73031309 18.5964143,7.39551858 C18.5964144,7.3955186 19.1935478,4.68928488 16.4873141,5.28668136 C16.1528615,5.28668134 15.8845788,5.01605798 15.8845788,4.68386713 C15.8845788,4.34639005 16.1528615,4.07571409 16.4873141,4.07571409 C16.4873141,4.07571407 20.254949,3.37898383 19.804699,7.42757784 C19.8048315,7.44925227 19.8021349,7.47085131 19.7966777,7.49182788 C19.7542037,7.77846775 19.5016219,7.99825391 19.2045674,7.99825391 Z M18.765337,0.800198202 C21.096301,1.34412751 24.2955742,3.50138239 22.856852,8.26161857 L22.8515132,8.26161857 C22.7521794,8.97170907 22.4119672,9.13321519 22.0068737,9.13321519 C21.5224342,9.13321517 21.1311218,8.95971639 21.1311218,8.474672 C21.1311218,8.05456144 21.3050676,7.62742886 21.3050676,7.62742886 C21.3562467,7.45082674 21.7659953,6.35108068 21.0347336,4.7085888 C19.6946876,2.45802279 16.9964753,2.42417514 16.6776973,2.55262261 C16.3561841,2.67841383 15.8818173,2.73992871 15.8818173,2.73992871 C15.3940904,2.73992868 15.0030409,2.33906946 15.0030409,1.85670762 C15.0030409,1.45192977 15.2737169,1.10117136 15.643674,0.996472466 C15.643674,0.996472466 15.6516691,0.966674964 15.6647663,0.963992406 C15.6914868,0.958627264 15.718628,0.898348467 15.7476628,0.895665909 C16.1230114,0.823762677 17.4627681,0.495122289 18.765337,0.800198202 Z"></path>
  </symbol>
  <symbol id="icon-email" viewBox="0 0 18 18">
    <path d="M3.933333,8.55393301 L3.933333,2.13333301 L14.733333,2.13333301 L14.733333,8.55393301 L16.533333,7.52523301 L16.533333,2.13121112 C16.4913667,1.6329226 16.3755578,1.22654926 16.1859063,0.912091101 C15.9962547,0.597632943 15.6911005,0.404713576 15.2704435,0.333333 L3.6501092,0.333333 C3.27135336,0.384842559 2.94581256,0.577761926 2.6734868,0.912091101 C2.40116103,1.24642028 2.22110977,1.65350091 2.13333301,2.13333301 L2.13333301,7.52523301 L3.933333,8.55393301 Z M12.272733,12.033333 L18.333333,8.57013301 L18.333333,16.533333 C18.333333,17.0107227 18.1436907,17.4685597 17.8061252,17.8061252 C17.4685597,18.1436907 17.0107227,18.333333 16.533333,18.333333 L2.13333301,18.333333 C1.65594333,18.333333 1.19810628,18.1436907 0.860540791,17.8061252 C0.522975307,17.4685597 0.333332994,17.0107227 0.333333,16.533333 L0.333333,8.57013301 L6.39393301,12.033333 L12.272733,12.033333 Z M9.333333,10.233333 C9.333333,10.233333 5.733333,7.61523299 5.733333,5.67573301 C5.733333,3.83433301 8.53323299,3.033333 9.333333,5.452533 C10.133433,3.033333 12.933333,3.83433301 12.933333,5.67573301 C12.933333,7.61523302 9.333333,10.233333 9.333333,10.233333 Z"></path>
  </symbol>
  <symbol id="icon-twitter" viewBox="0 0 23 19">
    <path d="M22.1502788,3.06651336 C21.3355893,3.42782849 20.4592963,3.67216612 19.5400884,3.78222188 C20.477985,3.21948395 21.1985387,2.32934743 21.5383965,1.2682438 C20.6600269,1.78875908 19.6875216,2.16737858 18.6527206,2.37087791 C17.8234955,1.48766314 16.6426456,0.936 15.33582,0.936 C12.825995,0.936 10.7916939,2.9703011 10.7916939,5.48012613 C10.7916939,5.83659604 10.83184,6.1833755 10.9093636,6.5156193 C7.13285907,6.32596347 3.78411844,4.51661911 1.54285714,1.76730167 C1.1517785,2.43871102 0.92751394,3.21879177 0.92751394,4.05216997 C0.92751394,5.62894366 1.72974428,7.0195224 2.94935589,7.83490406 C2.20457604,7.81137012 1.50409537,7.60717862 0.890828687,7.26662873 C0.890136512,7.28531744 0.890136512,7.30469833 0.890136512,7.32407922 C0.890136512,9.52588656 2.45652759,11.3622257 4.53512786,11.779607 C4.15373967,11.8834332 3.75227841,11.9388072 3.33766583,11.9388072 C3.04487599,11.9388072 2.76039223,11.910428 2.48283022,11.8571306 C3.060796,13.6623219 4.73931936,14.9760692 6.72793694,15.0127545 C5.17262065,16.2316739 3.21307441,16.957765 1.0839454,16.957765 C0.717092867,16.957765 0.355777735,16.9363076 -9.23705556e-14,16.894085 C2.01076716,18.1836062 4.39946164,18.936 6.96604499,18.936 C15.3247452,18.936 19.895174,12.0114855 19.895174,6.00617881 C19.895174,5.80890906 19.891021,5.61302365 19.8820227,5.41852259 C20.7700827,4.77756893 21.540473,3.97741511 22.1495866,3.06651336 L22.1502788,3.06651336 Z"></path>
  </symbol>
</svg>