<?xml version="1.0" encoding="UTF-8"?>
<svg width="1em" height="1em" viewBox="0 0 16 16" xmlns="http://www.w3.org/2000/svg">
    <g stroke="none" stroke-width="1" fill="none" fill-rule="evenodd">
        <g fill="#FF7516">
            <path d="M5.17885781,4.45458707 C7.60479906,2.20833655 11.0039727,0.00445463079 15.00604,0 L15.5632455,0.556824113 C15.5677556,4.58045217 13.3686717,7.9826275 11.1229749,10.408117 L11.1229749,15.0343079 L10.5668254,15.5910693 L7.22992855,15.5910693 L6.83726675,15.4284559 L5.72610435,14.3159239 L5.71607944,14.3147873 L1.26688658,9.86020024 L1.26575295,9.85023361 L0.16350369,8.74654618 L0,8.35235441 L0,5.01142139 L0.556148014,4.45458707 L5.17885781,4.45458707 Z M4.05207521,5.56824113 L1.11229749,5.56824113 L1.11229749,8.12290341 L1.57718966,8.58617673 C2.32700353,7.52072385 3.15423361,6.51203995 4.05207521,5.56824113 Z M6.98522162,14.0063756 L7.45238543,14.4774153 L10.0050952,14.4774153 L10.0050952,11.5385278 C9.06097579,12.4349561 8.05157791,13.2598548 6.98522162,14.0063756 Z M11.0912536,5.7982604 C11.1778059,6.23285781 11.0884268,6.6841537 10.8426562,7.05274407 L10.8415342,7.05274407 C10.595851,7.42118872 10.2139572,7.67679483 9.77995723,7.76337626 C9.34595723,7.8499577 8.89546275,7.76037462 8.52738237,7.51432714 C8.159404,7.2682651 7.90408931,6.88597791 7.81762444,6.45145335 C7.73114501,6.01692879 7.82061152,5.56588061 8.06636757,5.19737767 C8.31212362,4.82877274 8.69403196,4.57299177 9.12810482,4.48633749 C9.56219224,4.39966863 10.0129344,4.48917885 10.3810731,4.73522632 C10.7492263,4.98128837 11.0047013,5.36364841 11.0912536,5.7982604 Z"></path>
            <polygon fill-rule="nonzero" points="3.33689683 14.4774153 3.33689683 15.5910693 0 15.5910693 0 12.2501217 1.11229749 12.2501217 1.11229749 14.4774153"></polygon>
        </g>
    </g>
</svg>