<svg xmlns="http://www.w3.org/2000/svg" viewBox="0 0 256 256" height="1em" width="1em">
  <path fill="currentColor" fill-rule="nonzero" d="M53.3333333,160 L53.3333333,181.333333 C53.3298003,192.497331 61.9341116,201.776034 73.0666667,202.613333 L74.6666667,202.666667 L106.666667,202.666667 L106.666667,224 L74.6666667,224 C51.1025173,224 32,204.897483 32,181.333333 L32,160 L53.3333333,160 Z M89,21.6666667 L135.933333,139 L112.946667,139 L100.136,107 L56.5093333,107 L43.72,139 L20.744,139 L67.6666667,21.6666667 L89,21.6666667 Z M78.3333333,52.44 L65.032,85.6666667 L91.6133333,85.6666667 L78.3333333,52.44 Z M196.333333,97.3333333 L196.333333,118.666667 L239,118.666667 L239,193.333333 L196.333333,193.333333 L196.333333,225.333333 L175,225.333333 L175,193.333333 L132.333333,193.333333 L132.333333,118.666667 L175,118.666667 L175,97.3333333 L196.333333,97.3333333 Z M181.333333,32 C204.897483,32 224,51.1025173 224,74.6666667 L224,96 L202.666667,96 L202.666667,74.6666667 C202.666667,62.884592 193.115408,53.3333333 181.333333,53.3333333 L149.333333,53.3333333 L149.333333,32 L181.333333,32 Z M175,140 L153.666667,140 L153.666667,172 L175,172 L175,140 Z M217.666667,140 L196.333333,140 L196.333333,172 L217.666667,172 L217.666667,140 Z" />
</svg>