<svg xmlns="http://www.w3.org/2000/svg" width="156" height="51" viewBox="0 0 156 51"><g fill="none" fill-rule="evenodd" opacity=".9"><rect width="156" height="51" fill="currentColor" rx="5"/><path fill="#FFF" d="M76.9677791,11.9554795 C78.183842,11.9554795 78.1230388,13.2739726 78.1230388,13.2739726 L78.1230388,16.6900685 L79.3999049,16.6900685 L79.3999049,13.2739726 C79.3999051,13.2140412 79.460708,10.8767123 77.3934011,10.8767123 C76.0557319,10.8767123 75.5693067,11.8955479 75.5693067,11.8955479 L75.5085036,10.9965753 L74.3532438,10.9965753 L74.414047,12.614726 L74.414047,16.6900685 L75.690913,16.6900685 L75.690913,13.2140411 C75.6909139,13.2140412 75.690913,11.9554795 76.9677791,11.9554795 Z M134.487555,11.9554795 C135.703617,11.9554795 135.642814,13.2739726 135.642814,13.2739726 L135.642814,16.6900685 L136.91968,16.6900685 L136.91968,13.2739726 C136.919681,13.2739727 136.980483,10.8767123 134.913177,10.8767123 C133.575507,10.8767123 133.210688,11.8955479 133.210688,11.8955479 L133.210688,8.41952055 L131.933822,8.41952055 L131.933822,16.6900685 L133.210688,16.6900685 L133.210688,13.2140411 C133.210689,13.2140412 133.210688,11.9554795 134.487555,11.9554795 Z M83.7169282,26.5787671 C80.7375741,26.5787671 79.7039206,28.7363014 79.7039206,28.7363014 L79.5823143,26.8184932 L77.2717948,26.8184932 L77.3934011,29.3955479 L77.3934011,43 L80.0079363,43 L80.0079363,36.9469178 C80.0079366,36.9469178 80.7983772,38.5650685 83.3521093,38.5650685 C90.2228648,38.5650685 90.2228648,26.5787671 83.7169282,26.5787671 Z M82.804881,36.5873288 C80.0687395,36.5873288 80.0079363,33.7705479 80.0079363,33.7705479 L80.0079363,31.6729452 C80.0079365,31.6729452 80.0687395,28.6164384 82.8656842,28.6164384 C86.9394949,28.6164384 86.9394949,36.5873288 82.804881,36.5873288 Z M63.2262682,13.8133562 C63.2262682,9.91780822 57.6323789,9.91780822 57.6323789,13.8732877 C57.6323789,17.8886986 63.2262682,17.7688356 63.2262682,13.8133562 L63.2262682,13.8133562 Z M61.888599,13.8133562 C61.888599,16.5702055 58.9092449,16.630137 58.9092449,13.8732877 C58.9092449,11.1763699 61.888599,11.1164384 61.888599,13.8133562 L61.888599,13.8133562 Z M90.4052742,13.8133562 C90.4052742,9.91780822 84.8113848,9.91780822 84.8113848,13.8732877 C84.8113848,17.8886986 90.4052742,17.7688356 90.4052742,13.8133562 L90.4052742,13.8133562 Z M89.067605,13.8133562 C89.067605,16.5702055 86.0882509,16.630137 86.0882509,13.8732877 C86.0882509,11.1763699 89.067605,11.1164384 89.067605,13.8133562 L89.067605,13.8133562 Z M119.165162,11.9554795 C120.381225,11.9554795 120.320422,13.2739726 120.320422,13.2739726 L120.320422,16.6900685 L121.597288,16.6900685 L121.597288,13.2739726 C121.597285,13.2739725 121.658091,10.8767123 119.590784,10.8767123 C118.253115,10.8767123 117.76669,11.8955479 117.76669,11.8955479 L117.705886,10.9965753 L116.550627,10.9965753 L116.61143,12.614726 L116.61143,16.6900685 L117.888296,16.6900685 L117.888296,13.2140411 C117.888296,13.2140412 117.888296,11.9554795 119.165162,11.9554795 Z M30.3317666,16.3715753 C28.0212471,16.3715753 26.0755465,17.8099315 24.8594836,17.8099315 C23.4002081,17.8099315 22.0625389,16.4914384 19.6912162,16.4914384 C15.1309803,16.4914384 11.3611853,20.7465753 12.0908231,27.2191781 C12.7596577,33.0325342 16.9550747,39.625 20.0560351,39.625 C22.0017357,39.625 22.8529798,38.3664384 25.2243024,38.3664384 C27.5956251,38.3664384 28.2644597,39.5650685 30.3317666,39.5650685 C33.7975459,39.5650685 36.6552938,33.5119863 37.2633252,31.4743151 C32.4598767,29.5565068 31.2438138,22.6643836 36.4728843,19.4280822 C36.4728837,19.4280826 34.4663805,16.3715753 30.3317666,16.3715753 Z M30.8181918,9 C27.4740188,9.23972603 24.2514521,12.4760274 24.616271,16.0719178 C28.2036566,16.1917808 31.1830107,12.5958904 30.8181918,9 L30.8181918,9 Z M56.4771191,22.3835616 L53.2545524,22.3835616 L48.0254819,38.3253425 L50.7008203,38.3253425 L52.1600958,33.6506849 L57.4499694,33.6506849 L58.9092449,38.3253425 L61.7061896,38.3253425 L56.4771191,22.3835616 Z M56.9635443,31.6729452 L52.646521,31.6729452 L54.774631,24.6609589 L56.9635443,31.6729452 Z M70.2794331,26.5787671 C67.300079,26.5787671 66.2664255,28.7363014 66.2664255,28.7363014 L66.1448192,26.8184932 L63.8342997,26.8184932 L63.955906,29.5753425 L63.955906,43 L66.5704412,43 L66.5704412,36.9469178 C66.5704421,36.9469183 67.3608821,38.5650685 69.9146142,38.5650685 C76.7853696,38.5650685 76.7853696,26.5787671 70.2794331,26.5787671 Z M69.3673859,36.5873288 C66.6312444,36.5873288 66.5704412,33.7705479 66.5704412,33.7705479 L66.5704412,31.6729452 C66.5704404,31.6729449 66.6312444,28.6164384 69.4281891,28.6164384 C73.5628029,28.6164384 73.5628029,36.5873288 69.3673859,36.5873288 Z M103.538754,33.8304795 C103.538754,31.3133562 101.714659,30.0547945 99.4649428,29.1558219 C98.0056673,28.5565068 96.3639824,27.9571918 96.3639824,26.3390411 C96.3639824,24.9606164 97.6408485,24.2414384 99.1609271,24.2414384 C100.924218,24.2414384 102.261888,24.9606164 102.261888,24.9606164 L102.930722,22.9229452 C102.930722,22.9229451 101.593053,22.1438356 99.2217303,22.1438356 C96.2423761,22.1438356 93.7494472,23.8219178 93.7494472,26.6386986 C93.7494472,28.6164384 95.1479195,30.1746575 98.0056673,31.1934932 C99.5865491,31.7328767 100.924218,32.4520548 100.924218,34.0702055 C100.924218,35.6883562 99.5865491,36.4674658 97.8232579,36.4674658 C95.5735415,36.4674658 94.1142661,35.4486301 94.1142661,35.4486301 L93.5062346,37.5462329 C93.5062356,37.5462321 94.7831006,38.5650685 97.7016516,38.5650685 C101.045825,38.5650685 103.538754,36.9469178 103.538754,33.8304795 Z M109.983887,38.5650685 C111.260753,38.5650685 111.990391,38.265411 111.990391,38.265411 L111.929588,36.3476027 C111.929588,36.4674658 111.443162,36.4674658 110.774328,36.4674658 C109.740674,36.4674658 109.254249,35.7482877 109.254249,34.3099315 L109.254249,28.7363014 L112.111997,28.7363014 L112.111997,26.8184932 L109.254249,26.8184932 L109.254249,23.9417808 L106.700517,24.7208904 L106.700517,26.8184932 L104.998029,26.8184932 L104.998029,28.7363014 L106.700517,28.7363014 L106.700517,34.5496575 C106.700517,37.1267123 107.612564,38.5650685 109.983887,38.5650685 Z M125.002264,32.5119863 C125.002264,24.5410959 113.571273,24.4811644 113.571273,32.6917808 C113.571273,40.6626712 125.002264,40.5428082 125.002264,32.5119863 L125.002264,32.5119863 Z M122.326925,32.5719178 C122.326925,38.0856164 116.185808,38.1455479 116.185808,32.6318493 C116.185808,27.1780822 122.326925,27.0582192 122.326925,32.5719178 L122.326925,32.5719178 Z M132.602657,28.9760274 C133.028279,28.9760274 133.393098,29.0359589 133.393098,29.0359589 L133.393098,26.6386986 C133.393098,26.6386986 133.028279,26.5787671 132.785066,26.5787671 C130.231334,26.5787671 129.5625,29.1558219 129.5625,29.1558219 L129.440893,26.8184932 L127.191177,26.8184932 L127.25198,29.2756849 L127.25198,38.3253425 L129.866515,38.3253425 L129.866515,31.9726027 C129.866516,31.9726023 129.927319,28.9760274 132.602657,28.9760274 Z M144.337664,37.8458904 L143.972845,36.0479452 C143.972845,36.0479452 142.817585,36.5873288 140.811082,36.5873288 C136.980483,36.5873288 137.162893,33.1712329 137.162893,33.1712329 L144.945696,33.1712329 C145.310514,29.5753425 143.851239,26.5787671 140.142247,26.5787671 C136.190043,26.5787671 134.669964,29.994863 134.669964,32.6917808 C134.669964,35.8082192 136.433255,38.5650685 140.446263,38.5650685 C142.695979,38.5650685 144.337664,37.8458904 144.337664,37.8458904 Z M137.162893,31.3732877 C137.162893,30.7739726 137.770924,28.3167808 139.959838,28.3167808 C142.695979,28.3167808 142.51357,31.3732877 142.51357,31.3732877 L137.162893,31.3732877 L137.162893,31.3732877 Z M51.7952769,8.77910959 C50.579214,8.77910959 49.6063637,8.95890411 49.6063637,8.95890411 L49.6063637,16.630137 C49.6063637,16.7499998 50.7008203,16.75 51.4304581,16.75 C54.349009,16.75 56.1123002,15.3715753 56.1123002,12.5547945 C56.1123002,10.0376712 54.5314185,8.77910959 51.7952769,8.77910959 Z M51.7344738,15.7311644 C51.1872455,15.7311644 50.8224266,15.6712329 50.8224266,15.6712329 L50.8224266,9.85787671 C50.8224266,9.79794521 51.4304581,9.79794521 51.8560801,9.79794521 C53.8017807,9.79794521 54.774631,10.7568493 54.774631,12.614726 C54.774631,14.5924658 53.7409776,15.7311644 51.7344738,15.7311644 Z M72.7723621,10.9965753 L71.5562991,10.9965753 L70.4010394,15.4914384 L69.1849765,10.9965753 L68.151323,10.9965753 L66.8136538,15.4914384 L65.7800003,10.9965753 L64.5031343,10.9965753 L66.2056224,16.6900685 L67.4216853,16.6900685 L68.6377482,12.494863 L69.7930079,16.6900685 L71.0090708,16.6900685 L72.7723621,10.9965753 Z M81.6496213,16.6900685 L82.9264873,16.6900685 L82.9264873,8.41952055 L81.6496213,8.41952055 L81.6496213,16.6900685 L81.6496213,16.6900685 Z M95.330329,16.0308219 L95.4519352,16.6900685 L96.607195,16.6900685 L96.4855887,15.6113014 L96.4855887,13.2140411 C96.4855887,11.6558219 95.755951,10.8767123 94.2358723,10.8767123 C93.0198094,10.8767123 92.2901717,11.3561644 92.2901717,11.3561644 L92.5333843,12.1952055 C92.5333843,12.1952054 93.0806126,11.7756849 94.0534629,11.7756849 C94.9047069,11.7756849 95.2087227,12.1952055 95.2087227,13.0342466 C93.5062346,12.9743151 91.8645497,13.5736301 91.8645497,15.1318493 C91.8645497,16.989726 94.3574786,17.3493151 95.330329,16.0308219 Z M93.1414157,15.0119863 C93.1414157,13.6335616 95.2695258,13.8732877 95.2695258,13.8732877 L95.2695258,14.7123288 C95.2695258,16.0308219 93.1414157,16.390411 93.1414157,15.0119863 L93.1414157,15.0119863 Z M102.626706,15.7910959 L102.68751,16.6900685 L103.842769,16.6900685 C103.842768,16.6900686 103.781966,15.8510274 103.781966,15.1318493 L103.781966,8.41952055 L102.5051,8.41952055 L102.5051,11.6558219 C102.5051,11.655822 102.079478,10.8767123 100.863415,10.8767123 C97.5800453,10.8767123 97.458439,16.8099315 100.741809,16.8099315 C102.201084,16.8099315 102.626706,15.7910959 102.626706,15.7910959 Z M102.5051,13.3339041 L102.5051,14.2928082 C102.5051,14.2928083 102.5051,15.7910959 101.106628,15.7910959 C99.1609271,15.7910959 99.0393208,11.8955479 101.167431,11.8955479 C102.5051,11.8955479 102.5051,13.3339041 102.5051,13.3339041 Z M114.726532,13.8133562 C114.726532,9.91780822 109.132643,9.91780822 109.132643,13.8732877 C109.132643,17.8886986 114.726532,17.7688356 114.726532,13.8133562 L114.726532,13.8133562 Z M113.388863,13.8133562 C113.388863,16.5702055 110.409509,16.630137 110.409509,13.8732877 C110.409509,11.1763699 113.388863,11.1164384 113.388863,13.8133562 L113.388863,13.8133562 Z M129.076075,16.8099315 C129.805712,16.8099315 130.109728,16.630137 130.109728,16.630137 L130.048925,15.6712329 C130.048925,15.6712329 129.866515,15.7311644 129.501697,15.7311644 C129.015271,15.7311644 128.772059,15.4315068 128.772059,14.7123288 L128.772059,11.9554795 L130.170531,11.9554795 L130.170531,10.9965753 L128.772059,10.9965753 L128.772059,9.61815068 L127.495193,9.97773973 L127.495193,10.9965753 L126.643949,10.9965753 L126.643949,11.9554795 L127.495193,11.9554795 L127.495193,14.8321918 C127.495193,16.0308219 127.981618,16.8099315 129.076075,16.8099315 Z M143.547223,16.4503425 L143.364814,15.5513699 C143.364814,15.55137 142.878389,15.7910959 141.783932,15.7910959 C139.899034,15.7910959 139.959838,14.1729452 139.959838,14.1729452 L143.790436,14.1729452 C144.094451,12.7945205 143.425617,10.8767123 141.479916,10.8767123 C139.716625,10.8767123 138.743775,12.375 138.743775,13.9332192 C138.743775,15.3715753 139.534216,16.75 141.601523,16.75 C142.817585,16.75 143.547223,16.4503425 143.547223,16.4503425 Z M141.35831,11.7756849 C142.756782,11.7756849 142.635176,13.2739726 142.635176,13.2739726 L139.959838,13.2739726 C139.959838,13.2739727 140.081444,11.7756849 141.35831,11.7756849 Z"/></g></svg>