<svg xmlns="http://www.w3.org/2000/svg" xmlns:xlink="http://www.w3.org/1999/xlink" width="1024" height="1024" viewBox="0 0 1024 1024"><defs><filter id="b" width="112.1%" height="112.1%" x="-6.1%" y="-4.9%" filterUnits="objectBoundingBox"><feOffset dy="10" in="SourceAlpha" result="shadowOffsetOuter1"/><feGaussianBlur in="shadowOffsetOuter1" result="shadowBlurOuter1" stdDeviation="15"/><feColorMatrix in="shadowBlurOuter1" values="0 0 0 0 0 0 0 0 0 0 0 0 0 0 0 0 0 0 0.164963942 0"/></filter><filter id="d" width="125.8%" height="198.6%" x="-12.9%" y="-49.3%" filterUnits="objectBoundingBox"><feGaussianBlur in="SourceGraphic" stdDeviation="24"/></filter><filter id="g" width="220.2%" height="219.9%" x="-60.1%" y="-60%" filterUnits="objectBoundingBox"><feMorphology in="SourceAlpha" operator="dilate" radius="5" result="shadowSpreadOuter1"/><feOffset in="shadowSpreadOuter1" result="shadowOffsetOuter1"/><feGaussianBlur in="shadowOffsetOuter1" result="shadowBlurOuter1" stdDeviation="15"/><feColorMatrix in="shadowBlurOuter1" values="0 0 0 0 0.250577583 0 0 0 0 0.947633605 0 0 0 0 0.275864143 0 0 0 0.430561626 0"/></filter><linearGradient id="c" x1="50%" x2="50%" y1="2.013%" y2="99.283%"><stop offset="0%" stop-color="#4C7DFF"/><stop offset="100%" stop-color="#004CC5"/></linearGradient><linearGradient id="e" x1="50%" x2="50%" y1="0%" y2="100%"><stop offset="0%" stop-color="#D1F5F8"/><stop offset="100%" stop-color="#537FD1"/></linearGradient><rect id="a" width="824" height="824" x="0" y="0" rx="176"/><path id="f" d="M420.117142,543 C392.62788,543 370.21476,520.605099 370.21476,492.96384 C370.21476,465.400884 392.549785,442.92768 420.117142,442.92768 C447.684498,442.92768 470.019524,465.322581 470.019524,492.96384 C470.019524,520.605099 447.684498,543 420.117142,543 Z"/></defs><g fill="none" fill-rule="evenodd" transform="translate(97 103)"><use xlink:href="#a" fill="#000" filter="url(#b)"/><use xlink:href="#a" fill="url(#c)"/><path fill="#6C89D4" fill-rule="nonzero" d="M142,606 C142,646.316787 266.912555,679 421,679 C575.087445,679 700,646.316787 700,606 C700,565.683213 575.087445,533 421,533 C266.912555,533 142,565.683213 142,606 L142,606 Z" filter="url(#d)" opacity=".771"/><path fill="url(#e)" fill-rule="nonzero" d="M572.73293,170 L268.26707,170 C241.591104,170 220,184.629822 220,202.78019 L220,606 L621,606 L621,202.78019 C621,184.629822 599.408896,170 572.73293,170 Z"/><g fill-rule="nonzero"><use xlink:href="#f" fill="#000" filter="url(#g)"/><use xlink:href="#f" fill="#85F934"/></g><path fill="#004DB8" fill-rule="nonzero" d="M520 380.030177 520 353.915713C520 347.288296 514.627417 341.915713 508 341.915713L332 341.915713C325.372583 341.915713 320 347.288296 320 353.915713L320 380.030177C320 386.657594 325.372583 392.030177 332 392.030177L508 392.030177C514.627417 392.030177 520 386.657594 520 380.030177ZM520 280.114464 520 254C520 247.372583 514.627417 242 508 242L332 242C325.372583 242 320 247.372583 320 254L320 280.114464C320 286.741881 325.372583 292.114464 332 292.114464L508 292.114464C514.627417 292.114464 520 286.741881 520 280.114464Z"/></g></svg>