<svg xmlns="http://www.w3.org/2000/svg" width="179" height="51" viewBox="0 0 179 51"><g fill="none" fill-rule="evenodd" opacity=".9"><rect width="179" height="51" fill="currentColor" rx="5"/><path fill="#FFF" fill-rule="nonzero" d="M55.9543499,17.0909091 C53.7127125,17.0909091 51.9601596,17.8036364 50.6966912,19.2698182 C49.4739798,20.6545455 48.8830027,22.4465455 48.8830027,24.6661818 C48.8830027,26.8654545 49.4739798,28.6574545 50.6966912,30.0421818 C51.9601596,31.4676364 53.7127125,32.2007273 55.9543499,32.2007273 C58.1756089,32.2007273 59.9281618,31.488 61.2120087,30.0625455 C62.43472,28.6981818 63.0460757,26.9061818 63.0460757,24.6661818 C63.0460757,22.4261818 62.43472,20.6138182 61.2120087,19.2494545 C59.9281618,17.8036364 58.1756089,17.0909091 55.9543499,17.0909091 Z M55.9543499,19.1883636 C57.4623606,19.1883636 58.6239364,19.6567273 59.4390773,20.6341818 C60.2338396,21.6116364 60.6414101,22.9556364 60.6414101,24.6661818 C60.6414101,26.3767273 60.2338396,27.7003636 59.4390773,28.6574545 C58.6239364,29.6145455 57.4623606,30.1032727 55.9543499,30.1032727 C54.4463393,30.1032727 53.264385,29.5941818 52.4492441,28.5963636 C51.6544817,27.6189091 51.2672898,26.3156364 51.2672898,24.6661818 C51.2672898,22.9963636 51.6544817,21.6930909 52.4492441,20.7156364 C53.2847635,19.6974545 54.4463393,19.1883636 55.9543499,19.1883636 Z M69.8570313,21.1025455 C68.4712918,21.1025455 67.4116086,21.5709091 66.6779818,22.5076364 L66.6779818,21.3876364 L64.5178584,21.3876364 L64.5178584,35.9476364 L66.84101,35.9476364 L66.84101,30.4698182 C67.6969079,31.6101818 68.7565911,32.2007273 69.9793024,32.2007273 C71.4873131,32.2007273 72.6896459,31.6509091 73.5455438,30.5512727 C74.3403062,29.5330909 74.7478767,28.2501818 74.7478767,26.7025455 C74.7478767,25.0734545 74.3403062,23.7701818 73.5251653,22.752 C72.6285103,21.6523636 71.405799,21.1025455 69.8570313,21.1025455 Z M69.5105964,22.976 C70.5295225,22.976 71.2835279,23.3425455 71.7726124,24.0756364 C72.1598043,24.6865455 72.3635895,25.5621818 72.3635895,26.7025455 C72.3635895,27.8429091 72.1394258,28.7185455 71.7114768,29.3294545 C71.2223923,29.9810909 70.4480084,30.3272727 69.4290823,30.3272727 C68.675077,30.3272727 68.0637213,30.0218182 67.5746368,29.4109091 C67.0244167,28.7389091 66.7594959,27.8429091 66.7594959,26.7432727 L66.7594959,26.5803636 C66.7594959,25.5214545 66.9632811,24.6865455 67.4116086,24.0552727 C67.9006932,23.3221818 68.5935629,22.976 69.5105964,22.976 Z M80.7029343,21.1025455 C79.1337881,21.1025455 77.8906982,21.632 76.9940432,22.7112727 C76.0566312,23.7701818 75.6083037,25.0734545 75.6083037,26.6414545 C75.6083037,28.3927273 76.0973883,29.7570909 77.0755573,30.7549091 C77.9925908,31.712 79.2356807,32.2007273 80.8048269,32.2007273 C82.210945,32.2007273 83.3725207,31.7934545 84.3099328,30.9992727 C85.0435596,30.3476364 85.5326441,29.5127273 85.7771864,28.5352727 L83.4540348,28.5352727 C83.1687355,29.1258182 82.8630577,29.5534545 82.5166228,29.8181818 C82.0682953,30.144 81.4976967,30.3069091 80.7844484,30.3069091 C79.948929,30.3069091 79.2968163,30.0421818 78.8484888,29.5330909 C78.4001613,29.024 78.1352405,28.2705455 78.0537264,27.2930909 L85.9402146,27.2930909 C85.9402146,25.3992727 85.5122656,23.9127273 84.6767462,22.8538182 C83.7597127,21.6727273 82.4351087,21.1025455 80.7029343,21.1025455 Z M80.7640699,22.9963636 C82.3943517,22.9963636 83.3113852,23.8312727 83.5151704,25.5418182 L78.0944835,25.5418182 C78.2371331,24.7069091 78.5224324,24.0756364 78.9503814,23.648 C79.3987089,23.2 79.989686,22.9963636 80.7640699,22.9963636 Z M92.6492775,21.1025455 C92.0175433,21.1025455 91.4469447,21.2247273 90.9171031,21.4894545 C90.4076401,21.7338182 89.9389341,22.1207273 89.5313636,22.6094545 L89.5313636,21.3876364 L87.2082121,21.3876364 L87.2082121,31.9156364 L89.5313636,31.9156364 L89.5313636,25.5825455 C89.6128777,24.7476364 89.898177,24.096 90.3872616,23.648 C90.8152105,23.2407273 91.3246736,23.0370909 91.8952722,23.0370909 C93.4847969,23.0370909 94.2795593,23.8923636 94.2795593,25.6232727 L94.2795593,31.9156364 L96.6027109,31.9156364 L96.6027109,25.4196364 C96.6027109,22.528 95.2781069,21.1025455 92.6492775,21.1025455 Z M110.041215,17.0909091 C108.472069,17.0909091 107.188222,17.4370909 106.169296,18.1498182 C105.068856,18.8829091 104.539014,19.9010909 104.539014,21.184 C104.539014,22.4669091 105.089234,23.4443636 106.210053,24.1163636 C106.638002,24.3607273 107.758821,24.768 109.552131,25.3381818 C111.162034,25.8269091 112.099446,26.1527273 112.384745,26.2952727 C113.2814,26.7432727 113.750106,27.3541818 113.750106,28.128 C113.750106,28.7389091 113.42405,29.2072727 112.812694,29.5738182 C112.201339,29.92 111.345441,30.1032727 110.285758,30.1032727 C109.083425,30.1032727 108.207148,29.8792727 107.63655,29.472 C107.004816,29.0036364 106.617624,28.2094545 106.454595,27.1098182 L104.090687,27.1098182 C104.192579,28.9629091 104.865071,30.3069091 106.087782,31.1621818 C107.08633,31.8545455 108.492448,32.2007273 110.285758,32.2007273 C112.140203,32.2007273 113.587078,31.8138182 114.606004,31.0807273 C115.62493,30.3272727 116.134394,29.2887273 116.134394,27.9854545 C116.134394,26.6414545 115.502659,25.6029091 114.239191,24.8494545 C113.668592,24.5236364 112.405124,24.0349091 110.428407,23.424 C109.083425,22.9963636 108.247905,22.6909091 107.942228,22.528 C107.249358,22.1614545 106.923301,21.6523636 106.923301,21.0414545 C106.923301,20.3490909 107.208601,19.84 107.819956,19.5345455 C108.309041,19.2698182 109.001911,19.1476364 109.918944,19.1476364 C110.978627,19.1476364 111.793768,19.3309091 112.32361,19.7381818 C112.853451,20.1250909 113.240643,20.7767273 113.444429,21.6727273 L115.808337,21.6727273 C115.665688,20.0843636 115.07471,18.9032727 114.055784,18.1498182 C113.097994,17.4370909 111.753011,17.0909091 110.041215,17.0909091 Z M122.293236,21.1025455 C120.683333,21.1025455 119.399486,21.6116364 118.441696,22.6705455 C117.463527,23.7090909 116.994821,25.0327273 116.994821,26.6618182 C116.994821,28.2705455 117.463527,29.5941818 118.421317,30.6123636 C119.399486,31.6712727 120.683333,32.2007273 122.293236,32.2007273 C123.882761,32.2007273 125.186987,31.6712727 126.165156,30.6123636 C127.102568,29.5941818 127.591652,28.2705455 127.591652,26.6618182 C127.591652,25.0327273 127.102568,23.7090909 126.144777,22.6705455 C125.166608,21.6116364 123.882761,21.1025455 122.293236,21.1025455 Z M122.293236,22.9963636 C123.251027,22.9963636 124.005032,23.3629091 124.534874,24.1367273 C124.983201,24.7883636 125.227744,25.6436364 125.227744,26.6618182 C125.227744,27.6596364 124.983201,28.4945455 124.534874,29.1665455 C124.005032,29.92 123.251027,30.3069091 122.293236,30.3069091 C121.315067,30.3069091 120.581441,29.92 120.051599,29.1665455 C119.603271,28.5149091 119.379108,27.68 119.379108,26.6618182 C119.379108,25.6436364 119.603271,24.7883636 120.051599,24.1367273 C120.581441,23.3629091 121.315067,22.9963636 122.293236,22.9963636 Z M129.063435,21.3876364 L129.063435,27.9447273 C129.063435,30.7752727 130.326903,32.2007273 132.85384,32.2007273 C134.158066,32.2007273 135.258506,31.6509091 136.155161,30.5512727 L136.155161,31.9156364 L138.478312,31.9156364 L138.478312,21.3876364 L136.155161,21.3876364 L136.155161,27.8225455 C135.951375,28.576 135.604941,29.1665455 135.136235,29.6145455 C134.667529,30.0421818 134.178444,30.2661818 133.668981,30.2661818 C132.85384,30.2661818 132.283241,30.0625455 131.916428,29.6756364 C131.549615,29.2683636 131.386586,28.6574545 131.386586,27.8021818 L131.386586,21.3876364 L129.063435,21.3876364 Z M145.330025,21.1025455 C144.677912,21.1025455 144.127692,21.2858182 143.658986,21.6727273 C143.271794,21.9578182 142.945738,22.3650909 142.660438,22.8945455 L142.660438,21.3876364 L140.357665,21.3876364 L140.357665,31.9156364 L142.660438,31.9156364 L142.660438,26.336 C142.660438,25.44 142.925359,24.7272727 143.495958,24.1774545 C143.985042,23.6887273 144.535263,23.4647273 145.146618,23.4647273 C145.635703,23.4647273 146.124787,23.5258182 146.654629,23.6887273 L146.654629,21.3672727 C146.287815,21.184 145.839488,21.1025455 145.330025,21.1025455 Z M152.14098,21.1025455 C150.49032,21.1025455 149.206473,21.6523636 148.28944,22.752 C147.433542,23.7498182 147.005593,25.0530909 147.005593,26.6414545 C147.005593,28.2705455 147.433542,29.5941818 148.309818,30.6123636 C149.206473,31.6712727 150.469942,32.2007273 152.100223,32.2007273 C153.465584,32.2007273 154.566025,31.8545455 155.381166,31.1825455 C156.216685,30.4901818 156.766905,29.4312727 157.011447,28.0058182 L154.708674,28.0058182 C154.525268,29.5330909 153.66937,30.3069091 152.120602,30.3069091 C151.223947,30.3069091 150.551456,29.9810909 150.103128,29.3498182 C149.614044,28.6981818 149.38988,27.7818182 149.38988,26.6210909 C149.38988,25.4807273 149.634422,24.5847273 150.123507,23.9534545 C150.612591,23.3018182 151.285083,22.9963636 152.14098,22.9963636 C152.83385,22.9963636 153.404449,23.1592727 153.832398,23.4850909 C154.239968,23.8109091 154.525268,24.2996364 154.667917,24.9716364 L156.97069,24.9716364 C156.766905,23.648 156.237063,22.6705455 155.401544,22.0189091 C154.586403,21.408 153.506341,21.1025455 152.14098,21.1025455 Z M162.76272,21.1025455 C161.193574,21.1025455 159.950484,21.632 159.053829,22.7112727 C158.116417,23.7701818 157.668089,25.0734545 157.668089,26.6414545 C157.668089,28.3927273 158.157174,29.7570909 159.135343,30.7549091 C160.052376,31.712 161.295466,32.2007273 162.864612,32.2007273 C164.27073,32.2007273 165.432306,31.7934545 166.369718,30.9992727 C167.103345,30.3476364 167.59243,29.5127273 167.836972,28.5352727 L165.51382,28.5352727 C165.228521,29.1258182 164.922843,29.5534545 164.576408,29.8181818 C164.128081,30.144 163.557482,30.3069091 162.844234,30.3069091 C162.008714,30.3069091 161.356602,30.0421818 160.908274,29.5330909 C160.459947,29.024 160.195026,28.2705455 160.113512,27.2930909 L168,27.2930909 C168,25.3992727 167.572051,23.9127273 166.736532,22.8538182 C165.819498,21.6727273 164.494894,21.1025455 162.76272,21.1025455 Z M162.823855,22.9963636 C164.454137,22.9963636 165.371171,23.8312727 165.574956,25.5418182 L160.154269,25.5418182 C160.296919,24.7069091 160.582218,24.0756364 161.010167,23.648 C161.458494,23.2 162.049471,22.9963636 162.823855,22.9963636 Z M26.5939939,12 C18.5342309,12 12,18.4736867 12,26.4600755 C12,32.6583695 15.9376645,37.9443434 21.4693652,40 L24.8326498,31.114343 C22.5616947,30.2706817 21.2251612,27.9382319 21.6578797,25.5738964 C22.0905982,23.209561 24.1686326,21.490515 26.5939939,21.490515 C29.0193551,21.490515 31.0973896,23.209561 31.530108,25.5738964 C31.9628265,27.9382319 30.6262931,30.2706817 28.355338,31.114343 L31.7186225,40 C37.2503232,37.9443434 41.1879877,32.6583695 41.1879877,26.4600755 C41.1879877,18.4736867 34.6537569,12 26.5926765,12 L26.5939939,12 Z"/></g></svg>