<svg xmlns="http://www.w3.org/2000/svg"  width="1em" height="1em" viewBox="0 0 1018 1018" version="1.1">
    <g id="Logo" stroke="none" stroke-width="1" fill="none" fill-rule="evenodd">
        <path d="M509,0 C113.111071,0 0,113.111071 0,509 C0,904.889293 113.393929,1018 509,1018 C904.605707,1018 1018,904.889293 1018,509 C1018,113.111071 904.605707,0 509,0 Z" id="Path" fill="#00AA45" fill-rule="nonzero"></path>
        <path d="M131.750105,131.750105 C65.215625,198.284586 36.3571429,311.817036 36.3571429,509 C36.3571429,706.166604 65.2807043,819.704507 131.850269,886.243532 C198.424561,952.788011 311.9661,981.642857 509,981.642857 C706.0339,981.642857 819.575439,952.788011 886.149004,886.243532 C952.718932,819.704507 981.642857,706.166604 981.642857,509 C981.642857,311.833396 952.718932,198.295493 886.149004,131.755923 C819.575439,65.2125346 706.0339,36.3571429 509,36.3571429 C311.817036,36.3571429 198.284586,65.215625 131.750105,131.750105 Z M0,509 C0,113.111071 113.111071,0 509,0 C904.605707,0 1018,113.111071 1018,509 C1018,904.889293 904.605707,1018 509,1018 C113.393929,1018 0,904.889293 0,509 Z" id="Shape" fill="#219653"></path>
        <path d="M492.242185,236 L273,236 L273,855 L443.366585,855 L443.366585,725.53615 L492.242185,725.53615 C631.184462,725.53615 745,616.590329 745,480.767165 C745,344.944 631.184462,236 492.242185,236 Z M443.366585,559.660535 L443.366585,401.875615 L492.242185,401.875615 C538.398338,401.875615 574.633415,437.837694 574.633415,480.767165 C574.633415,523.696635 538.398338,559.660535 492.242185,559.660535 L443.366585,559.660535 Z" id="Shape" fill="#24292E"></path>
        <path d="M325,221 L526.23035,221 C655.889483,221 761,322.333475 761,447.332525 C761,572.333394 655.889483,673.666869 526.23035,673.666869 L459.153567,673.666869 L459.153567,803 L325,803 L325,221 Z M459.153567,544.333737 L526.23035,544.333737 C581.79855,544.333737 626.846433,500.905625 626.846433,447.332525 C626.846433,393.761244 581.79855,350.333131 526.23035,350.333131 L459.153567,350.333131 L459.153567,544.333737 Z" id="Shape" fill="#FFFFFF"></path>
        <path d="M310,200 L529.242185,200 C668.184462,200 782,308.944 782,444.767165 C782,580.590329 668.184462,689.53615 529.242185,689.53615 L480.366585,689.53615 L480.366585,819 L310,819 L310,200 Z M346.307692,236.411765 L346.307692,782.588235 L444.058892,782.588235 L444.058892,653.124385 L529.242185,653.124385 C649.436985,653.124385 745.692308,559.198418 745.692308,444.767165 C745.692308,330.337732 649.436985,236.411765 529.242185,236.411765 L346.307692,236.411765 Z M444.058892,329.46385 L529.242185,329.46385 C594.145815,329.46385 647.941108,380.445782 647.941108,444.767165 C647.941108,509.090368 594.145815,560.0723 529.242185,560.0723 L444.058892,560.0723 L444.058892,329.46385 Z M480.366585,365.875615 L480.366585,523.660535 L529.242185,523.660535 C575.398338,523.660535 611.633415,487.696635 611.633415,444.767165 C611.633415,401.837694 575.398338,365.875615 529.242185,365.875615 L480.366585,365.875615 Z" id="Shape" fill="#24292E"></path>
    </g>
</svg>