<svg xmlns="http://www.w3.org/2000/svg" xmlns:xlink="http://www.w3.org/1999/xlink" width="1024" height="1024" viewBox="0 0 1024 1024"><defs><filter id="b" width="112.1%" height="112.1%" x="-6.1%" y="-4.9%" filterUnits="objectBoundingBox"><feOffset dy="10" in="SourceAlpha" result="shadowOffsetOuter1"/><feGaussianBlur in="shadowOffsetOuter1" result="shadowBlurOuter1" stdDeviation="15"/><feColorMatrix in="shadowBlurOuter1" values="0 0 0 0 0 0 0 0 0 0 0 0 0 0 0 0 0 0 0.164963942 0"/></filter><filter id="e" width="159%" height="159%" x="-29.5%" y="-29.1%" filterUnits="objectBoundingBox"><feOffset dy="2" in="SourceAlpha" result="shadowOffsetOuter1"/><feGaussianBlur in="shadowOffsetOuter1" result="shadowBlurOuter1" stdDeviation="60"/><feColorMatrix in="shadowBlurOuter1" values="0 0 0 0 0 0 0 0 0 0 0 0 0 0 0 0 0 0 0.115002185 0"/></filter><linearGradient id="c" x1="50%" x2="50%" y1="2.013%" y2="100%"><stop offset="0%" stop-color="#7DFF97"/><stop offset="100%" stop-color="#00D828"/></linearGradient><rect id="a" width="824" height="824" x="0" y="0" rx="176"/><path id="d" d="M139,412 C139,261.210156 261.210156,139 412,139 C562.789844,139 685,261.210156 685,412 C685,562.789844 562.789844,685 412,685 C261.210156,685 139,562.789844 139,412 Z M313.995488,485.870581 C307.810219,478.754244 297.039321,478.010746 289.894269,484.171158 C282.749218,490.331569 282.00272,501.059181 288.187988,508.175518 C311.862636,535.366298 353.23995,565 411.040217,565 C470.76005,565 512.030721,535.366298 535.812012,508.175518 C541.99728,501.059181 541.250782,490.331569 534.105731,484.171158 C526.960679,478.010746 516.189781,478.754244 510.004512,485.870581 C490.808852,507.856876 458.282871,531.011525 411.040217,531.011525 C365.717129,531.011525 333.084506,507.856876 313.995488,485.870581 Z M327,327 C308.19375,327 293,342.19375 293,361 C293,379.80625 308.19375,395 327,395 C345.7,395 361,379.80625 361,361 C361,342.19375 345.7,327 327,327 Z M459.83041,388.131071 C478.665205,362.945389 516.334795,362.945389 535.16959,388.131071 C540.841432,395.740362 551.54302,397.240785 559.141148,391.56061 C566.739275,385.880435 568.237498,375.163124 562.565656,367.553833 C530.032828,324.148722 464.967172,324.148722 432.434344,367.553833 C426.762502,375.163124 428.260725,385.880435 435.858852,391.56061 C443.45698,397.240785 454.158568,395.740362 459.83041,388.131071 Z"/></defs><g fill="none" fill-rule="evenodd" transform="translate(97 103)"><use xlink:href="#a" fill="#000" filter="url(#b)"/><use xlink:href="#a" fill="url(#c)"/><g fill-rule="nonzero"><use xlink:href="#d" fill="#000" filter="url(#e)"/><use xlink:href="#d" fill="#D8FFB9"/></g></g></svg>