<svg xmlns="http://www.w3.org/2000/svg" viewBox="0 0 256 256" height="1em" width="1em">
  <path fill="currentColor" fill-rule="nonzero" d="M53.3333333,160 L53.3333333,181.333333 C53.3298003,192.497331 61.9341116,201.776034 73.0666667,202.613333 L74.6666667,202.666667 L106.666667,202.666667 L106.666667,224 L74.6666667,224 C51.1025173,224 32,204.897483 32,181.333333 L32,160 L53.3333333,160 Z M192,106.666667 L238.933333,224 L215.946667,224 L203.136,192 L159.509333,192 L146.72,224 L123.744,224 L170.666667,106.666667 L192,106.666667 Z M181.333333,137.44 L168.032,170.666667 L194.613333,170.666667 L181.333333,137.44 Z M85.3333333,21.3333333 L85.3333333,42.6666667 L128,42.6666667 L128,117.333333 L85.3333333,117.333333 L85.3333333,149.333333 L64,149.333333 L64,117.333333 L21.3333333,117.333333 L21.3333333,42.6666667 L64,42.6666667 L64,21.3333333 L85.3333333,21.3333333 Z M181.333333,32 C204.897483,32 224,51.1025173 224,74.6666667 L224,96 L202.666667,96 L202.666667,74.6666667 C202.666667,62.884592 193.115408,53.3333333 181.333333,53.3333333 L149.333333,53.3333333 L149.333333,32 L181.333333,32 Z M64,64 L42.6666667,64 L42.6666667,96 L64,96 L64,64 Z M106.666667,64 L85.3333333,64 L85.3333333,96 L106.666667,96 L106.666667,64 Z"/>
</svg>