<?xml version="1.0" encoding="UTF-8"?>
<svg width="1em" height="1em" viewBox="0 0 98 98" version="1.1" xmlns="http://www.w3.org/2000/svg" xmlns:xlink="http://www.w3.org/1999/xlink">
    <title>Combined Shape</title>
    <g id="Page-1" stroke="none" stroke-width="1" fill="none" fill-rule="evenodd">
        <path d="M49,0 C76.0619527,0 98,21.9380473 98,49 C98,76.0619527 76.0619527,98 49,98 C21.9380473,98 0,76.0619527 0,49 C0,21.9380473 21.9380473,0 49,0 Z M50.0993867,15.706756 L22.5656867,45.868116 C21.3064867,47.245616 22.2871867,49.444916 24.1518867,49.444916 L45.1834867,49.444916 L45.1834867,80.077516 C45.1834867,82.035116 47.5929867,82.965616 48.9126867,81.515416 L76.4339867,51.342016 C77.6929867,49.964516 76.7129867,47.765216 74.8481867,47.765216 L74.8602867,47.777316 L53.8285867,47.777316 L53.8285867,17.144726 C53.8285867,15.187146 51.4190867,14.256687 50.0993867,15.706756 Z" id="Combined-Shape" fill="#f49643"></path>
    </g>
</svg>