<svg xmlns="http://www.w3.org/2000/svg" width="1em" height="1em" viewBox="0 0 64 64"><g fill="none" fill-rule="evenodd"><path fill="red" fill-rule="nonzero" d="M62.603,16.596 C61.8538125,13.8338832 59.6961168,11.6761875 56.934,10.927 C51.964,9.57 31.96,9.57 31.96,9.57 C31.96,9.57 11.955,9.61 6.984,10.967 C4.22188323,11.7161875 2.06418754,13.8738832 1.315,16.636 C0,21.607 0,32 0,32 C0,32 0,42.393 1.356,47.404 C2.10518754,50.1661168 4.26288323,52.3238125 7.025,53.073 C11.995,54.43 32,54.43 32,54.43 C32,54.43 52.005,54.43 56.976,53.074 C59.7381168,52.3248125 61.8958125,50.1671168 62.645,47.405 C64,42.434 64,32 64,32 C64,32 63.96,21.607 62.603,16.596 Z"/><polygon fill="#FFF" fill-rule="nonzero" points="25.592 41.612 42.187 32 25.591 22.388"/></g></svg>